<?xml version="1.0" encoding="utf-8"?><svg version="1.1" xmlns="http://www.w3.org/2000/svg" width="340" height="340" data-sprite-id="dcd313a4d8f19f8cdf241be29be7f360" data-total="4"><svg width="160" height="160" xmlns="http://www.w3.org/2000/svg" viewBox="0 0 160 160" x="0" y="0" data-name="Component" data-svg-id="07eeff3880"><g fill="none" fill-rule="evenodd"><path d="M0 0h160v160H0z"/><path d="M47 80H28V35a7 7 0 0 1 7-7h45v19a7 7 0 0 1 0 14v19H61a7 7 0 0 0-14 0z" stroke="#03C0E6" stroke-width="2" fill="#D5F8FF"/><path d="M80 99V80H61a7 7 0 0 0-14 0H28v45a7 7 0 0 0 7 7h45v-19a7 7 0 0 1 0-14z" stroke="#03C0E6" stroke-width="2" fill="#D5F8FF"/><path d="M113 80h19v45a7 7 0 0 1-7 7H80v-19a7 7 0 0 1 0-14V80h19a7 7 0 0 0 14 0z" stroke="#03C0E6" stroke-width="2" fill="#D5F8FF"/><path d="M115 85h22V32.996c0-5.52-4.484-9.996-9.996-9.996H75v22.055a9.001 9.001 0 0 1 0 17.89V85h22a9 9 0 1 0 18 0z" stroke="#03C0E6" stroke-width="2" fill="#FFF"/></g></svg><svg width="160" height="160" xmlns="http://www.w3.org/2000/svg" viewBox="0 0 160 160" x="170" y="0" data-name="Extension" data-svg-id="a96ae3b77d"><g fill="none" fill-rule="evenodd"><path d="M-66 0H94v160H-66z"/><path d="M22 61.002A.999.999 0 0 1 23.003 60h113.994A.997.997 0 0 1 138 61.002v63.99c0 2.214-1.799 4.008-3.993 4.008H25.993A4 4 0 0 1 22 124.992v-63.99z" stroke="#03C0E6" stroke-width="2" fill="#FFF"/><g stroke="#03C0E6"><path d="M63 107v9"/><path d="M55 107v6.5s.5 2 2.5 2 2.5-2 2.5-2V107M45 116v-9l3.5 8 3.5-8v9M36 111.5c0 2.5.652 2.733 1.617 3.5 1.02.447 1.383 0 1.383 0l3 2-1.743-2S42 114 42 111.5s-1.033-3.5-3-4c-1.967.5-3 1.5-3 4z" stroke-linecap="square"/></g><path d="M40.317 31.484c.93-1.372 3.027-2.484 4.686-2.484h69.994c1.652 0 3.757 1.112 4.686 2.484l17.634 26.032c.93 1.372.337 2.484-1.323 2.484H24.006c-1.66 0-2.252-1.112-1.323-2.484l17.634-26.032z" fill="#D5F8FF"/><path d="M83 29l5 31v34.998A1.998 1.998 0 0 1 86.006 97H73.994A2 2 0 0 1 72 94.998V60l5-31" stroke="#03C0E6" stroke-width="2" fill="#FFF"/><path d="M40.878 30.656c.62-.915 2.015-1.656 3.116-1.656h72.012c1.101 0 2.492.736 3.116 1.656l18.756 27.688c.62.915.223 1.656-.877 1.656H23c-1.104 0-1.5-.736-.877-1.656l18.756-27.688z" stroke="#03C0E6" stroke-width="2"/></g></svg><svg width="160" height="160" xmlns="http://www.w3.org/2000/svg" viewBox="0 0 160 160" x="0" y="170" data-name="Sass" data-svg-id="fe8103d457"><g fill="none" fill-rule="evenodd"><path d="M0 0h160v160H0z"/><path d="M48.995 35h76.01A4.999 4.999 0 0 1 130 40.006v93.988a5 5 0 0 1-4.995 5.006h-76.01A4.999 4.999 0 0 1 44 133.994V40.006A5 5 0 0 1 48.995 35z" stroke="#03C0E6" stroke-width="2" fill="#D5F8FF" stroke-linecap="round"/><rect stroke="#03C0E6" stroke-width="2" fill="#FFF" stroke-linecap="square" x="30" y="21" width="86" height="104" rx="5"/><path d="M85 76a3 3 0 1 1 0-6 3 3 0 0 1 0 6zm-12 0a3 3 0 1 1 0-6 3 3 0 0 1 0 6zm-12 0a3 3 0 1 1 0-6 3 3 0 0 1 0 6z" fill-opacity=".5" fill="#03C0E6"/><path d="M50 61h-2.506c-.55 0-1.155.428-1.342.928l-.804 2.144A6.57 6.57 0 0 0 45 65.991v4.018c0 .547-.313 1.303-.71 1.702L43 73h-2 2l1.29 1.29c.392.392.71 1.161.71 1.7v3.012c0 1.104.314 2.837.702 3.87l.45 1.2c.192.513.806.928 1.342.928H50M96 85h2.506c.536 0 1.15-.415 1.342-.928l.45-1.2c.388-1.033.702-2.766.702-3.87v-3.011c0-.54.318-1.31.71-1.702L103 73h2-2l-1.29-1.29c-.397-.397-.71-1.154-.71-1.7v-4.02a6.57 6.57 0 0 0-.348-1.918l-.804-2.144c-.187-.5-.793-.928-1.342-.928H96" stroke="#03C0E6" stroke-width="2"/></g></svg><svg width="160" height="160" xmlns="http://www.w3.org/2000/svg" viewBox="0 0 160 160" x="170" y="170" data-name="Workflow" data-svg-id="d5642781c5"><g fill="none" fill-rule="evenodd"><path d="M0 0h160v160H0z"/><path d="M31.917 80C25.788 73.85 22 65.368 22 56c0-18.778 15.222-34 34-34 9.368 0 17.85 3.788 24 9.917C86.15 25.788 94.632 22 104 22c18.778 0 34 15.222 34 34s-15.222 34-34 34a33.872 33.872 0 0 1-22.581-8.581A33.872 33.872 0 0 1 90 104c0 18.778-15.222 34-34 34s-34-15.222-34-34c0-9.368 3.788-17.85 9.917-24zM56 118c7.732 0 14-6.268 14-14s-6.268-14-14-14-14 6.268-14 14 6.268 14 14 14zm48-48c7.732 0 14-6.268 14-14s-6.268-14-14-14-14 6.268-14 14 6.268 14 14 14zm-48 0c7.732 0 14-6.268 14-14s-6.268-14-14-14-14 6.268-14 14 6.268 14 14 14z" fill="#D5F8FF"/><path d="M31.917 80C25.788 73.85 22 65.368 22 56c0-18.778 15.222-34 34-34 9.368 0 17.85 3.788 24 9.917C86.15 25.788 94.632 22 104 22c18.778 0 34 15.222 34 34s-15.222 34-34 34a33.872 33.872 0 0 1-22.581-8.581A33.872 33.872 0 0 1 90 104c0 18.778-15.222 34-34 34s-34-15.222-34-34c0-9.368 3.788-17.85 9.917-24zM56 118c7.732 0 14-6.268 14-14s-6.268-14-14-14-14 6.268-14 14 6.268 14 14 14zm48-48c7.732 0 14-6.268 14-14s-6.268-14-14-14-14 6.268-14 14 6.268 14 14 14zm-48 0c7.732 0 14-6.268 14-14s-6.268-14-14-14-14 6.268-14 14 6.268 14 14 14z" stroke="#03C0E6" stroke-width="2"/><path d="M56 118c-7.732 0-14-6.268-14-14s6.268-14 14-14 14 6.268 14 14-6.268 14-14 14zm48-48c-7.732 0-14-6.268-14-14s6.268-14 14-14 14 6.268 14 14-6.268 14-14 14zm-48 0c-7.732 0-14-6.268-14-14s6.268-14 14-14 14 6.268 14 14-6.268 14-14 14zM82.781 83.051C76.558 75.106 66.875 70 56 70M31.883 79.966C38.042 86.163 46.573 90 56 90m34-34c0-9.469-3.87-18.034-10.116-24.198" stroke="#03C0E6" stroke-width="2"/></g></svg></svg>