<?xml version="1.0" encoding="utf-8"?><svg version="1.1" xmlns="http://www.w3.org/2000/svg" xmlns:xlink="http://www.w3.org/1999/xlink" width="210" height="192"><svg width="40" height="40" viewBox="0 0 40 40" xmlns="http://www.w3.org/2000/svg" x="128" y="122"><title>AppExmail</title><g fill="none" fill-rule="evenodd"><path fill="#4794E8" d="M0 0h40v40H0z"/><path d="M7 11.503C7 10.673 7.669 10 8.491 10H31.51c.823 0 1.491.665 1.491 1.503v16.994c0 .83-.669 1.503-1.491 1.503H8.49A1.492 1.492 0 0 1 7 28.497V11.503zm2.88 2.921v1.483l9.27 5.582c.48.288 1.249.287 1.723 0l9.218-5.582-.014-1.483-9.17 4.65c-.486.247-1.295.25-1.792 0l-9.235-4.65z" fill="#FFF"/></g></svg><svg width="24" height="24" viewBox="0 0 24 24" xmlns="http://www.w3.org/2000/svg" x="122" y="88"><title>AppPermissionWorknote</title><g fill="none" fill-rule="evenodd"><path fill="#F7B51C" d="M0 0h24v24H0z"/><path d="M5 5c0-.552.45-1 1.007-1h11.986C18.55 4 19 4.445 19 5v14c0 .552-.45 1-1.007 1H6.007A1.002 1.002 0 0 1 5 19V5z" fill="#FFF"/><rect fill="#F7B51C" x="7" y="6.692" width="2.308" height="2.308" rx="1.154"/><path fill="#F7B51C" d="M7 11h8v1H7zM7 13h4v1H7zM7 15h5v1H7z"/></g></svg><svg width="112" height="112" viewBox="0 0 112 112" xmlns="http://www.w3.org/2000/svg" x="0" y="0"><title>CardClose</title><g fill="none" fill-rule="evenodd"><circle fill-opacity=".5" fill="#000" cx="56" cy="56" r="56"/><g transform="translate(39 39)" stroke="#FFF" stroke-width="2" stroke-linecap="square"><path d="M.5.5l34.132 34.132M34.5.5L.368 34.632"/></g></g></svg><svg width="78" height="78" viewBox="0 0 78 78" xmlns="http://www.w3.org/2000/svg" x="122" y="0"><title>ClaimFeatureApproval</title><g fill="none" fill-rule="evenodd"><rect fill="#67A0E6" opacity=".9" width="78" height="78" rx="39"/><g transform="translate(21.081 17.919)" fill="#FFF"><path d="M.892 27.236a2.99 2.99 0 0 1 2.992-2.993h28.07a2.99 2.99 0 0 1 2.992 2.993v7.548H.892v-7.548zm2.432 9.656h29.19v1.054c0 .582-.47 1.054-1.057 1.054H4.38a1.052 1.052 0 0 1-1.056-1.054v-1.054z"/><path d="M17.919 32.19s7.297-20.295 7.297-24.325a7.297 7.297 0 0 0-14.594 0c0 4.03 7.297 24.324 7.297 24.324z"/><path d="M10.622 7.865h14.594L21.58 29.757h-7.286z"/></g></g></svg><svg width="48" height="54" viewBox="0 0 48 54" xmlns="http://www.w3.org/2000/svg" x="70" y="122"><title>CorpAuthErr</title><g transform="translate(0 -1)" fill="none" fill-rule="evenodd"><path d="M20.561 1.74c1.9-1.134 4.977-1.135 6.878 0L44.56 11.96C46.461 13.095 48 15.8 48 18.02v19.538c0 2.213-1.538 4.924-3.439 6.059L27.44 53.838c-1.9 1.134-4.977 1.135-6.878 0L3.44 43.617C1.539 42.483 0 39.777 0 37.558V18.02c0-2.212 1.538-4.924 3.439-6.058L20.56 1.739z" fill="#E05454"/><path d="M21.19 16.953A2.74 2.74 0 0 1 23.955 14h.368c1.631 0 2.869 1.321 2.763 2.953l-.874 13.536c-.105 1.631-1.521 2.953-2.074 2.953 0 0-.349 0 0 0-1.04 0-1.967-1.321-2.072-2.953l-.874-13.536zM24.139 42C22.405 42 21 40.575 21 38.818s1.405-3.182 3.138-3.182c1.733 0 3.138 1.425 3.138 3.182S25.87 42 24.138 42z" fill="#FFF"/></g></svg><svg width="60" height="60" viewBox="0 0 60 60" xmlns="http://www.w3.org/2000/svg" xmlns:xlink="http://www.w3.org/1999/xlink" x="0" y="122"><title>Members</title><defs><path id="a" d="M0 0h60v60H0z"/></defs><g fill="none" fill-rule="evenodd"><mask id="b" fill="#fff"><use xlink:href="#a"/></mask><use fill="#FC0" xlink:href="#a"/><use fill-opacity=".6" fill="#55D041" xlink:href="#a"/><path d="M30 38V20c1.045 0 3.2.724 3.505 2.534.476 2.816.303 4.29-1.125 6.542 0 0-.474.949-.052 2.02.276.702.626 1.272 2.367 2.061 2.342 1.224 3.63 2.369 3.853 2.599.222.23.317.467.317.467.075.147.135.4.135.564v.616c0 .33-.27.597-.597.597H30zm0 0h-8.403a.599.599 0 0 1-.597-.597v-.616c0-.164.06-.417.135-.564 0 0 .095-.237.317-.467.223-.23 1.51-1.375 3.853-2.599 1.741-.789 2.09-1.36 2.367-2.06.422-1.072-.052-2.021-.052-2.021-1.428-2.253-1.6-3.726-1.125-6.542C26.801 20.724 28.955 20 30 20v18z" fill="#FFF" mask="url(#b)"/><path d="M14.03 31H12l2.508-5.017.051-.192.025.042L15 25l3 6h-1.965c.513 7.265 6.57 13 13.965 13 4.988 0 9.366-2.608 11.846-6.535l1.1 1.906.04-.023C40.082 43.378 35.347 46 30 46c-8.5 0-15.453-6.63-15.97-15zm31.94 0H48l-3 6-3-6h1.965c.023-.33.035-.664.035-1 0-7.732-6.268-14-14-14-5.53 0-10.31 3.206-12.585 7.86l-1.173-2.032C19.032 17.14 24.149 14 30 14c8.837 0 16 7.163 16 16 0 .336-.01.67-.03 1z" fill="#FFF" fill-rule="nonzero" mask="url(#b)"/></g></svg></svg>